/* XPM */
static char * C:\Users\Somic\Documents\MyDesign\AlphaCup\Wallet\ALPHACUP_MEDIA\newpixmaps\logo_16_xpm[] = {
"16 16 153 2",
"  	c None",
". 	c #BB1A20",
"+ 	c #D8222A",
"@ 	c #CE1E26",
"# 	c #CE1E27",
"$ 	c #D52228",
"% 	c #B91A1F",
"& 	c #961013",
"* 	c #B1161B",
"= 	c #C31C22",
"- 	c #D72028",
"; 	c #BA2328",
"> 	c #D62027",
", 	c #C01B21",
"' 	c #AE151A",
") 	c #940F12",
"! 	c #82090C",
"~ 	c #A21014",
"{ 	c #A61519",
"] 	c #BC1B21",
"^ 	c #BC141B",
"/ 	c #A17172",
"( 	c #AF797A",
"_ 	c #A46D6E",
": 	c #BC1319",
"< 	c #B81A20",
"[ 	c #A41418",
"} 	c #A21013",
"| 	c #81090B",
"1 	c #8D0A0C",
"2 	c #A51519",
"3 	c #B81319",
"4 	c #AC3437",
"5 	c #CBBABA",
"6 	c #CF5C61",
"7 	c #CABABA",
"8 	c #AD292D",
"9 	c #B7141A",
"0 	c #A31418",
"a 	c #710304",
"b 	c #87090B",
"c 	c #930F12",
"d 	c #A9161B",
"e 	c #9E0106",
"f 	c #CBA6A7",
"g 	c #EACCCE",
"h 	c #C0181E",
"i 	c #EBD6D7",
"j 	c #C69494",
"k 	c #A00207",
"l 	c #A7161A",
"m 	c #880A0C",
"n 	c #720404",
"o 	c #700304",
"p 	c #82090B",
"q 	c #950F13",
"r 	c #A40D12",
"s 	c #941C1E",
"t 	c #FCFEFE",
"u 	c #D7878A",
"v 	c #900000",
"w 	c #DF9C9E",
"x 	c #F9FDFC",
"y 	c #911013",
"z 	c #A50F13",
"A 	c #83090B",
"B 	c #710405",
"C 	c #630000",
"D 	c #991115",
"E 	c #840000",
"F 	c #C7A2A2",
"G 	c #FFFCFD",
"H 	c #9E1F22",
"I 	c #840606",
"J 	c #A53134",
"K 	c #FEFEFE",
"L 	c #BE8B8C",
"M 	c #870000",
"N 	c #971114",
"O 	c #650000",
"P 	c #830A0C",
"Q 	c #900709",
"R 	c #7E1B1B",
"S 	c #CF8A8C",
"T 	c #880000",
"U 	c #B26061",
"V 	c #850000",
"W 	c #DDA9AB",
"X 	c #7A1011",
"Y 	c #92080B",
"Z 	c #880A0D",
"` 	c #740000",
" .	c #B69F9F",
"..	c #E8CBCC",
"+.	c #A9080D",
"@.	c #9A080C",
"#.	c #97171A",
"$.	c #970206",
"%.	c #AF151A",
"&.	c #EFDCDD",
"*.	c #AF8F8F",
"=.	c #760000",
"-.	c #880B0D",
";.	c #700405",
">.	c #810203",
",.	c #7D2D2D",
"'.	c #C3ABAB",
").	c #B44A4D",
"!.	c #C77A7B",
"~.	c #F4E4E4",
"{.	c #FEF8F8",
"].	c #F1DBDB",
"^.	c #C36C6E",
"/.	c #B95154",
"(.	c #C2AEAE",
"_.	c #792525",
":.	c #830304",
"<.	c #740405",
"[.	c #730000",
"}.	c #864243",
"|.	c #935153",
"1.	c #C5989C",
"2.	c #D19C9F",
"3.	c #D1969B",
"4.	c #D49FA4",
"5.	c #C89DA1",
"6.	c #935051",
"7.	c #854647",
"8.	c #740001",
"9.	c #740505",
"0.	c #AD181E",
"a.	c #B80D15",
"b.	c #AF0A11",
"c.	c #AD0911",
"d.	c #AF0911",
"e.	c #BA0D15",
"f.	c #A81A1F",
"g.	c #AD151A",
"h.	c #A3161A",
"i.	c #9E151A",
"j.	c #9F161A",
"k.	c #A2151A",
"l.	c #A81419",
"m.	c #810D10",
"n.	c #7E0B0E",
"o.	c #780B0E",
"p.	c #770B0E",
"q.	c #7E0C0E",
"r.	c #800D0F",
"s.	c #590304",
"t.	c #550203",
"u.	c #530203",
"v.	c #5A0305",
"                                ",
"          . + @   # $ %         ",
"      & * = -     ; > , ' )     ",
"    ! ~ { ] ^ / ( _ : < [ } |   ",
"    1 ) 2 3 4 5 6 7 8 9 0 ) 1   ",
"  a b c d e f g h i j k l c m n ",
"  o p q r s t u v w x y z c A B ",
"C o p D E F G H I J K L M N p B ",
"O o P Q R K S T U V W t X Y P B ",
"C o Z `  ...+.@.#.$.%.&.*.=.-.B ",
"  ;.>.,.'.).!.~.{.].^./.(._.:.B ",
"  <.[.  }.|.1.2.3.4.5.6.7.  8.9.",
"          0.a.b.c.d.e.f.        ",
"        g.h.i.i.i.i.j.k.l.      ",
"        m.n.o.p.p.p.o.q.r.      ",
"          s.t.u.u.u.t.v.        "};
