/* XPM */
static char * C:\Users\Somic\Documents\MyDesign\AlphaCup\Wallet\ALPHACUP_MEDIA\newpixmaps\logo_32_xpm[] = {
"32 32 445 2",
"  	c None",
". 	c #CB2027",
"+ 	c #CF2129",
"@ 	c #CE2129",
"# 	c #D42129",
"$ 	c #CE2128",
"% 	c #C91F26",
"& 	c #B3181D",
"* 	c #BA1A20",
"= 	c #CF1F26",
"- 	c #D7222A",
"; 	c #DE242C",
"> 	c #CB2028",
", 	c #CB2128",
"' 	c #DA232B",
") 	c #D32128",
"! 	c #CA1E25",
"~ 	c #B7191F",
"{ 	c #B0181B",
"] 	c #9E1115",
"^ 	c #A91519",
"/ 	c #BC191F",
"( 	c #BA1B21",
"_ 	c #BF1D23",
": 	c #C82027",
"< 	c #DC242B",
"[ 	c #C81F26",
"} 	c #CA2027",
"| 	c #D8232B",
"1 	c #C41F25",
"2 	c #BB1C22",
"3 	c #B81A20",
"4 	c #BA191E",
"5 	c #A81419",
"6 	c #970F12",
"7 	c #AB1318",
"8 	c #A8151A",
"9 	c #AC171C",
"0 	c #B61A20",
"a 	c #D02128",
"b 	c #D7232A",
"c 	c #B3191F",
"d 	c #AA171B",
"e 	c #A81519",
"f 	c #A91317",
"g 	c #950E12",
"h 	c #8E0C0F",
"i 	c #A01013",
"j 	c #9C1216",
"k 	c #A51519",
"l 	c #AD171C",
"m 	c #C01D24",
"n 	c #CD2027",
"o 	c #BC161D",
"p 	c #8F5F5F",
"q 	c #966B6B",
"r 	c #976262",
"s 	c #966C6C",
"t 	c #975454",
"u 	c #C2171D",
"v 	c #C71F26",
"w 	c #BC1C22",
"x 	c #AB171B",
"y 	c #A31418",
"z 	c #9B1115",
"A 	c #8D0C0F",
"B 	c #84090C",
"C 	c #960D10",
"D 	c #920F12",
"E 	c #C11E24",
"F 	c #C51A20",
"G 	c #AD2429",
"H 	c #9D8483",
"I 	c #B18687",
"J 	c #B25A5D",
"K 	c #B28D8D",
"L 	c #9D8181",
"M 	c #B4171D",
"N 	c #C61C23",
"O 	c #BD1C22",
"P 	c #930F12",
"Q 	c #83090B",
"R 	c #790607",
"S 	c #8E0A0C",
"T 	c #8A0C0F",
"U 	c #B71A20",
"V 	c #AD0C10",
"W 	c #AF686A",
"X 	c #BCA8A7",
"Y 	c #BB9293",
"Z 	c #C6393F",
"` 	c #B99A9A",
" .	c #B7A5A5",
"..	c #AF4C4D",
"+.	c #B31016",
"@.	c #B4191F",
"#.	c #8F0A0C",
"$.	c #7A0708",
"%.	c #820708",
"&.	c #8B0C0F",
"*.	c #B91B21",
"=.	c #B8181E",
"-.	c #A10B0F",
";.	c #C4B3B2",
">.	c #D5C9C9",
",.	c #CB9293",
"'.	c #C7141B",
").	c #CA9FA0",
"!.	c #D6CAC9",
"~.	c #C1A3A3",
"{.	c #A2050A",
"].	c #B71A1F",
"^.	c #B51A1F",
"/.	c #84090B",
"(.	c #800708",
"_.	c #700304",
":.	c #82090B",
"<.	c #AF181D",
"[.	c #B41A1F",
"}.	c #A1090E",
"|.	c #AE4D4F",
"1.	c #DAD5D5",
"2.	c #E0E1E0",
"3.	c #D07376",
"4.	c #C5020A",
"5.	c #D38689",
"6.	c #E4E3E2",
"7.	c #D9D5D5",
"8.	c #A7292D",
"9.	c #AA0F14",
"0.	c #AB171C",
"a.	c #710305",
"b.	c #790405",
"c.	c #790708",
"d.	c #B1181E",
"e.	c #AA151A",
"f.	c #8E0000",
"g.	c #D8C2C2",
"h.	c #F5F0F0",
"i.	c #ECEAE9",
"j.	c #C73D43",
"k.	c #BD080F",
"l.	c #CB5357",
"m.	c #EEF1F1",
"n.	c #F1EEEE",
"o.	c #CD9FA0",
"p.	c #910001",
"q.	c #AA161B",
"r.	c #AE171C",
"s.	c #7B0708",
"t.	c #780405",
"u.	c #690101",
"v.	c #A61519",
"w.	c #97080B",
"x.	c #9D2E2F",
"y.	c #F2F7F7",
"z.	c #FEFFFF",
"A.	c #EECBCD",
"B.	c #AD1318",
"C.	c #B61D23",
"D.	c #F5E3E4",
"E.	c #FFFFFF",
"F.	c #F1F3F3",
"G.	c #9D0D10",
"H.	c #7B0405",
"I.	c #6B0101",
"J.	c #680101",
"K.	c #730405",
"L.	c #A9161A",
"M.	c #9D1215",
"N.	c #7C0000",
"O.	c #DBBFBF",
"P.	c #FEFEFE",
"Q.	c #D5777B",
"R.	c #A10308",
"S.	c #A00206",
"T.	c #E19FA1",
"U.	c #FDFEFE",
"V.	c #C79092",
"W.	c #830000",
"X.	c #9E1317",
"Y.	c #760405",
"Z.	c #690102",
"`.	c #670101",
" +	c #710405",
".+	c #9D1216",
"++	c #A31419",
"@+	c #890507",
"#+	c #8D1F22",
"$+	c #FAF0F0",
"%+	c #B11F24",
"&+	c #90090C",
"*+	c #8A0D0F",
"=+	c #8F0307",
"-+	c #BC4246",
";+	c #FBFCFC",
">+	c #800608",
",+	c #8F090B",
"'+	c #9B1215",
")+	c #630000",
"!+	c #A01317",
"~+	c #930E11",
"{+	c #6D0000",
"]+	c #D9BFBF",
"^+	c #D99092",
"/+	c #930001",
"(+	c #7E0608",
"_+	c #7E0000",
":+	c #970508",
"<+	c #EDC6C8",
"[+	c #C28E8E",
"}+	c #720000",
"|+	c #950F13",
"1+	c #9E1316",
"2+	c #720405",
"3+	c #640000",
"4+	c #9A1215",
"5+	c #790202",
"6+	c #842626",
"7+	c #FBFEFE",
"8+	c #FAF2F2",
"9+	c #A82024",
"0+	c #820205",
"a+	c #9D1214",
"b+	c #C34242",
"c+	c #900D0F",
"d+	c #800000",
"e+	c #BB4F53",
"f+	c #F8FCFC",
"g+	c #76090B",
"h+	c #810506",
"i+	c #981014",
"j+	c #88090C",
"k+	c #5D0000",
"l+	c #D7C4C5",
"m+	c #FFFEFE",
"n+	c #CC8082",
"o+	c #910000",
"p+	c #800001",
"q+	c #AE494A",
"r+	c #F5FFFF",
"s+	c #9E3436",
"t+	c #800102",
"u+	c #940105",
"v+	c #E4BDBE",
"w+	c #FEFEFD",
"x+	c #C59F9F",
"y+	c #610000",
"z+	c #8C0C0E",
"A+	c #971013",
"B+	c #8C0D0F",
"C+	c #670000",
"D+	c #863C3C",
"E+	c #EAE6E6",
"F+	c #EAD8D8",
"G+	c #9D0F13",
"H+	c #9F0F13",
"I+	c #8F0C0F",
"J+	c #861315",
"K+	c #95393B",
"L+	c #850F11",
"M+	c #900D10",
"N+	c #9C080B",
"O+	c #AC3235",
"P+	c #F8F6F6",
"Q+	c #FAF6F6",
"R+	c #E9E5E5",
"S+	c #731C1C",
"T+	c #700101",
"U+	c #940F12",
"V+	c #8F0E10",
"W+	c #820608",
"X+	c #580000",
"Y+	c #CDBABA",
"Z+	c #E9DDDD",
"`+	c #ECF0EF",
" @	c #B1494C",
".@	c #B20B11",
"+@	c #AB1519",
"@@	c #9D090E",
"#@	c #950004",
"$@	c #900000",
"%@	c #960206",
"&@	c #9D0C10",
"*@	c #AD060C",
"=@	c #C4797B",
"-@	c #F1F8F7",
";@	c #E9DCDC",
">@	c #C3A9A9",
",@	c #560000",
"'@	c #86080A",
")@	c #8E0D10",
"!@	c #830A0C",
"~@	c #8C0C0F",
"{@	c #935B5B",
"]@	c #CCB9B9",
"^@	c #DBD8D7",
"/@	c #C08283",
"(@	c #BB060D",
"_@	c #B30A10",
":@	c #A51318",
"<@	c #B43B3E",
"[@	c #C56064",
"}@	c #CB6D71",
"|@	c #C1575A",
"1@	c #AF2C30",
"2@	c #A2090E",
"3@	c #B70A10",
"4@	c #BD1117",
"5@	c #CFA7A8",
"6@	c #DBD6D5",
"7@	c #CBBABA",
"8@	c #823D3D",
"9@	c #690000",
"0@	c #8C0D10",
"a@	c #850A0D",
"b@	c #7E0405",
"c@	c #661212",
"d@	c #AF9393",
"e@	c #C4B1B0",
"f@	c #C19798",
"g@	c #B20D12",
"h@	c #B0272B",
"i@	c #C18082",
"j@	c #EFDEDE",
"k@	c #E6C8C8",
"l@	c #B66264",
"m@	c #AC1116",
"n@	c #B61D22",
"o@	c #C6ABAB",
"p@	c #C5AFAF",
"q@	c #AC8F8F",
"r@	c #610707",
"s@	c #820507",
"t@	c #87090B",
"u@	c #895B5B",
"v@	c #AD8989",
"w@	c #B48E8E",
"x@	c #A72E31",
"y@	c #9E4C4D",
"z@	c #BEADAD",
"A@	c #E9E9E8",
"B@	c #FCFFFF",
"C@	c #E9EAE9",
"D@	c #B8A09F",
"E@	c #9B3739",
"F@	c #A9373A",
"G@	c #B49494",
"H@	c #AA8686",
"I@	c #814A4A",
"J@	c #870A0C",
"K@	c #7D0709",
"L@	c #7C0506",
"M@	c #986969",
"N@	c #8E383A",
"O@	c #793A3A",
"P@	c #937D7D",
"Q@	c #B19293",
"R@	c #BF989A",
"S@	c #C4979A",
"T@	c #C69194",
"U@	c #C58C90",
"V@	c #C68A90",
"W@	c #C68D91",
"X@	c #C99699",
"Y@	c #C99DA0",
"Z@	c #C29FA1",
"`@	c #B59D9D",
" #	c #978180",
".#	c #7D3637",
"+#	c #8C3F40",
"@#	c #956A6A",
"##	c #810608",
"$#	c #7E0809",
"%#	c #770405",
"&#	c #890708",
"*#	c #550707",
"=#	c #612D2B",
"-#	c #B32026",
";#	c #AC101A",
">#	c #A20B15",
",#	c #9E0812",
"'#	c #9C0711",
")#	c #9C0811",
"!#	c #9C0812",
"~#	c #9D0711",
"{#	c #9F0712",
"]#	c #A20B14",
"^#	c #AE111B",
"/#	c #A8282D",
"(#	c #643332",
"_#	c #530A0A",
":#	c #6C0202",
"<#	c #8C0809",
"[#	c #710505",
"}#	c #760404",
"|#	c #6D0B0E",
"1#	c #C91E24",
"2#	c #C61F25",
"3#	c #C11E25",
"4#	c #C01E24",
"5#	c #BF1E24",
"6#	c #C01E25",
"7#	c #C51B22",
"8#	c #5D0C0E",
"9#	c #7A0405",
"0#	c #BC1920",
"a#	c #BE1C22",
"b#	c #AD191F",
"c#	c #AE191F",
"d#	c #BF1C22",
"e#	c #B7171D",
"f#	c #9D1317",
"g#	c #AD171B",
"h#	c #9B1519",
"i#	c #9D1519",
"j#	c #A8161B",
"k#	c #A7141A",
"l#	c #9A1115",
"m#	c #941115",
"n#	c #961216",
"o#	c #8B1014",
"p#	c #881013",
"q#	c #891013",
"r#	c #9E1216",
"s#	c #8D1013",
"t#	c #7A0C0E",
"u#	c #7F0C0F",
"v#	c #770B0E",
"w#	c #800C0F",
"x#	c #7B0B0E",
"y#	c #690708",
"z#	c #6A0708",
"A#	c #660708",
"B#	c #650708",
"C#	c #6B0708",
"D#	c #690809",
"E#	c #560202",
"F#	c #540202",
"G#	c #580202",
"H#	c #570202",
"I#	c #550202",
"J#	c #4A0000",
"K#	c #490000",
"L#	c #480000",
"                                                                ",
"                        . + @       # $ %                       ",
"                  & * = - ; >       , ' ) ! ~ {                 ",
"              ] ^ / ( _ : < [       } | 1 2 3 4 5               ",
"            6 7 8 9 0 _ } a           b 1 2 c d e f g           ",
"          h i j k l 0 m n o p q r s t u v w c x y z i A         ",
"        B C D j k l 0 E F G H I J K L M N O c x y z P C Q       ",
"      R S T P j k l U _ V W X Y Z `  ...+.2 @.x y z P T #.$.    ",
"      %.Q &.P j k l *.=.-.;.>.,.'.).!.~.{.].^.x y z P T /.(.    ",
"    _.(.:.&.P j k <.[.}.|.1.2.3.4.5.6.7.8.9.c 0.y z P T :.%.a.  ",
"    b.c.:.&.P j k d.e.f.g.h.i.j.k.l.m.n.o.p.q.r.y z P T :.s.t.  ",
"  u.t.c.:.&.P j v.0.w.x.y.z.A.+.B.C.D.E.F.P G.x y z P T :.$.H.I.",
"  J.K.c.:.&.P j L.M.N.O.E.P.Q.R.j S.T.E.U.V.W.X.v.z P T :.$.Y.Z.",
"  `. +c.:.&.P .+++@+#+U.E.$+%+&+*+=+-+P.E.;+>+,+y '+P T :.$.K.Z.",
")+J. +c.:.&.P !+~+{+]+E.E.^+/+(+_+(+:+<+E.P.[+}+|+1+P T :.$.2+Z.",
"3+J. +c.:.&.|+4+5+6+7+E.8+9+0+a+b+c+d+e+P.E.f+g+h+'+P T :.$.2+Z.",
"3+J. +c.:.&.i+j+k+l+m+P.n+o+p+q+r+s+t+u+v+E.w+x+y+z+A+T :.$.2+Z.",
"3+J. +c.:.B+P C+D+E+;+F+G+H+I+J+K+L+M+N+O+P+Q+R+S+T+U+&.:.$.2+Z.",
")+J. +c.:.V+W+X+Y+Z+`+ @.@+@@@#@$@%@&@9 *@=@-@;@>@,@'@)@:.$.2+Z.",
"  `. +c.!@~@)+{@]@^@/@(@_@:@<@[@}@|@1@2@3@4@5@6@7@8@9@0@!@$.K.Z.",
"  J.K.c.a@b@c@d@e@f@g@h@i@j@P.P.P.P.P.k@l@m@n@o@p@q@r@s@a@$.Y.Z.",
"  `.t.$.t@3+u@v@w@x@y@z@A@B@E.E.E.E.E.E.C@D@E@F@G@H@I@9@J@$.H.I.",
"    b.K@L@    M@N@O@P@Q@R@S@T@U@V@W@X@Y@Z@`@ #.#+#@#    ##$#%#  ",
"    _.&#J.      *#=#-#;#>#,#'#)#!#~#~#{#]#^#/#(#_#      :#<#[#  ",
"      }#          |#1#2#3#4#5#5#5#5#5#6#3#% 7#8#          9#    ",
"                  0#a#b#c#c#c#c#c#b#b#b#c#b#d#e#                ",
"              f#g#0.h#h#h#h#h#h#h#h#h#h#h#h#i#j#k#l#            ",
"            m#.+n#o#p#q#q#q#q#q#q#q#q#q#q#q#p#o#n#r#s#          ",
"              t#u#v#v#v#v#v#v#v#v#v#v#v#v#v#v#v#w#x#            ",
"                y#z#z#A#B#B#B#B#B#B#B#B#B#A#C#y#D#              ",
"                    E#F#G#H#I#F#F#F#I#H#G#F#H#                  ",
"                          J#K#L#K#K#J#J#                        "};
